<svg width="26" height="20" viewBox="0 0 26 20" fill="none" xmlns="http://www.w3.org/2000/svg">
<path d="M18.152 13.017H13.6915L13.6915 19.9992H10V1.68842C10.0016 1.24738 10.1743 0.824902 10.4804 0.513257C10.7864 0.201612 11.201 0.026114 11.6335 0.0250813C13.8638 0.0188075 15.6518 0 18.152 0C27.7191 0.00235266 27.7476 13.017 18.152 13.017ZM13.6915 9.56642H18.152C22.8802 9.56642 22.8518 3.59799 18.152 3.59799H13.6915L13.6915 9.56642Z" fill="#2B335E"/>
<path d="M0.417969 20V1.7229C0.417969 1.28176 0.589828 0.858676 0.895733 0.546741C1.20164 0.234805 1.61653 0.0595703 2.04915 0.0595703H14.4895V2.02012C14.4895 2.23855 14.4473 2.45485 14.3653 2.65666C14.2833 2.85846 14.1632 3.04183 14.0117 3.19629C13.8602 3.35074 13.6804 3.47324 13.4825 3.55683C13.2846 3.64042 13.0725 3.68346 12.8583 3.68346H4.111V9.56638H7.94054H11.4632V11.3819C11.4625 12.8753 10.3797 13.0457 9.25417 13.0452H4.111V20H0.417969Z" fill="#FC2861"/>
</svg>
